<?xml version="1.0" encoding="UTF-8" standalone="no"?>
<svg
   xmlns:dc="http://purl.org/dc/elements/1.1/"
   xmlns:cc="http://creativecommons.org/ns#"
   xmlns:rdf="http://www.w3.org/1999/02/22-rdf-syntax-ns#"
   xmlns:svg="http://www.w3.org/2000/svg"
   xmlns="http://www.w3.org/2000/svg"
   xmlns:xlink="http://www.w3.org/1999/xlink"
   xmlns:sodipodi="http://sodipodi.sourceforge.net/DTD/sodipodi-0.dtd"
   xmlns:inkscape="http://www.inkscape.org/namespaces/inkscape"
   version="1.1"
   preserveAspectRatio="none"
   x="0px"
   y="0px"
   width="500px"
   height="500px"
   viewBox="0 0 500 500"
   id="svg3464"
   inkscape:version="0.91 r13725"
   sodipodi:docname="logo2.svg">
  <metadata
     id="metadata3480">
    <rdf:RDF>
      <cc:Work
         rdf:about="">
        <dc:format>image/svg+xml</dc:format>
        <dc:type
           rdf:resource="http://purl.org/dc/dcmitype/StillImage" />
        <dc:title></dc:title>
      </cc:Work>
    </rdf:RDF>
  </metadata>
  <sodipodi:namedview
     pagecolor="#ffffff"
     bordercolor="#666666"
     borderopacity="1"
     objecttolerance="10"
     gridtolerance="10"
     guidetolerance="10"
     inkscape:pageopacity="0"
     inkscape:pageshadow="2"
     inkscape:window-width="1680"
     inkscape:window-height="937"
     id="namedview3478"
     showgrid="false"
     inkscape:zoom="1.47"
     inkscape:cx="195.57823"
     inkscape:cy="250"
     inkscape:window-x="0"
     inkscape:window-y="1"
     inkscape:window-maximized="1"
     inkscape:current-layer="svg3464" />
  <defs
     id="defs3466">
    <g
       id="Layer0_0_FILL">
      <path
         fill="#0a74f7"
         fill-opacity="0.996078431372549"
         stroke="none"
         d=" M 210.4 241 Q 208.35 238.95 205.45 238.95 202.55 238.95 200.5 241 198.45 243.05 198.45 245.95 198.45 248.85 200.5 250.9 202.55 252.95 205.45 252.95 208.35 252.95 210.4 250.9 212.45 248.85 212.45 245.95 212.45 243.05 210.4 241 Z"
         id="path3469" />
    </g>
    <path
       id="Layer0_0_1_STROKES"
       stroke="#0a74f7"
       stroke-width="15"
       stroke-linejoin="miter"
       stroke-linecap="square"
       stroke-miterlimit="3"
       fill="none"
       d=" M 172.45 309.95 L 172.45 240.95 Q 172.45 230.2 176.45 221.05 179.65 211.75 187.2 204.2 200.45 190.95 219.2 190.95 220 190.95 220.8 191 221.6 190.95 222.45 190.95 L 277.45 190.95 Q 298.15 190.95 312.8 205.6 327.45 220.25 327.45 240.95 L 327.45 309.95 M 220.8 191 Q 238.5 191.5 251.15 204.2 264.45 217.45 264.45 236.2 264.45 254.95 251.15 268.15 237.95 281.45 219.2 281.45 219.05 281.45 218.4 281.45 M 176.45 221.05 Q 180.05 212.65 187.1 205.6 201.15 191.55 220.8 191 M 285.4 309.95 L 218.4 309.95" />
  </defs>
  <g
     transform="matrix(2,0,0,2,-249.95,-250.37061)"
     id="g3472">
    <use
       xlink:href="#Layer0_0_FILL"
       id="use3474"
       x="0"
       y="0"
       width="100%"
       height="100%" />
    <use
       xlink:href="#Layer0_0_1_STROKES"
       id="use3476"
       x="0"
       y="0"
       width="100%"
       height="100%" />
  </g>
</svg>
